<svg class="fill-zinc-950 dark:fill-zinc-300" width="100%" height="30" viewBox="0 0 36 10" fill="none" xmlns="http://www.w3.org/2000/svg"><path d="M28.5537 9.5V0.5H32.2791C32.9922 0.5 33.6008 0.621582 34.1049 0.864746C34.6121 1.10498 34.9979 1.44629 35.2622 1.88867C35.5296 2.32812 35.6633 2.84521 35.6633 3.43994C35.6633 4.0376 35.5281 4.55176 35.2576 4.98242C34.9871 5.41016 34.5952 5.73828 34.0819 5.9668C33.5716 6.19531 32.9538 6.30957 32.2284 6.30957H29.734V4.78027H31.9057C32.2868 4.78027 32.6034 4.73047 32.8555 4.63086C33.1075 4.53125 33.295 4.38184 33.418 4.18262C33.544 3.9834 33.607 3.73584 33.607 3.43994C33.607 3.14111 33.544 2.88916 33.418 2.68408C33.295 2.479 33.106 2.32373 32.8508 2.21826C32.5988 2.10986 32.2807 2.05566 31.8964 2.05566H30.5501V9.5H28.5537ZM33.6531 5.4043L35.9999 9.5H33.796L31.4999 5.4043H33.6531Z" fill="white"></path><path d="M26.9115 0.5V9.5H24.915V0.5H26.9115Z" fill="white"></path><path d="M16.8298 9.5H14.6904L17.9502 0.5H20.5229L23.778 9.5H21.6387L19.2734 2.55664H19.1997L16.8298 9.5ZM16.6961 5.9624H21.7493V7.44775H16.6961V5.9624Z" fill="white"></path><path d="M7.59473 9.5V0.5H9.59114V7.93115H13.6393V9.5H7.59473Z" fill="white"></path><path d="M0 9.5V0.5H6.25205V2.06885H1.99641V4.21338H5.83709V5.78223H1.99641V9.5H0Z" fill="white"></path></svg>